<svg width="220" height="64" viewBox="0 0 220 64" fill="none" xmlns="http://www.w3.org/2000/svg">
<path d="M27.5826 47.9235L25.1894 36.1278C25.0448 35.3687 24.8667 34.6163 24.6558 33.8731C24.5061 33.3227 24.2869 32.7938 24.0035 32.2992C23.7873 31.9194 23.4764 31.6028 23.1013 31.3804C22.6909 31.1676 22.2328 31.0651 21.7713 31.0827H20.077L14.3758 47.9278H0L16.2141 0H35.3169C41.9923 0 46.5541 1.09743 48.9981 3.2924C51.4378 5.48737 51.9122 8.77989 50.4297 13.1656C49.8564 14.899 49.033 16.5385 47.9857 18.0319C45.9913 20.8626 43.3141 23.1387 40.2048 24.6467C38.6461 25.4124 37.0239 26.0334 35.3338 26.5014L35.2322 26.799C36.4029 27.3622 37.4138 28.2121 38.1717 29.2705C38.5572 29.8107 38.9003 30.4361 39.2052 31.1464C39.506 31.8611 39.7813 32.6948 40.0354 33.6562L43.7924 47.9235H27.5826ZM34.4655 15.2073C35.0077 13.6036 34.9484 12.3318 34.2919 11.3959C33.6311 10.4601 32.2587 9.99222 30.1748 9.99222H27.2099L23.4994 20.9543H26.0959C27.2056 20.9543 28.2222 20.7841 29.1498 20.4353C30.0816 20.0907 30.8949 19.6441 31.598 19.0996C32.3054 18.5551 32.9026 17.9425 33.3854 17.2619C33.8725 16.5813 34.2326 15.9007 34.4655 15.2073ZM68.0501 47.9235L69.8375 42.6445H69.7062C69.0878 43.2231 68.3635 43.8696 67.5375 44.5842C66.6632 45.3284 65.7248 45.9932 64.7335 46.5708C63.6385 47.208 62.4801 47.7284 61.2772 48.1234C60.015 48.5488 58.6299 48.7615 57.1178 48.7615C55.0339 48.7615 53.3904 48.4 52.179 47.6726C51.0132 46.9975 50.1199 45.9333 49.6546 44.6651C49.176 43.389 49.032 41.8661 49.2183 40.1051C49.449 38.146 49.8951 36.2185 50.5483 34.3581L57.5372 13.7016H71.7139L65.0851 33.2861C64.4963 35.0259 64.3947 36.3021 64.7717 37.1146C65.1529 37.9228 65.9407 38.3311 67.1394 38.3311C68.516 38.3311 69.7062 37.876 70.7143 36.9614C71.7181 36.0511 72.506 34.7579 73.0735 33.0862L79.6303 13.7016H93.8071L82.2268 47.9235H68.0501ZM140.251 15.8072C139.427 18.2423 138.19 20.516 136.596 22.5282C134.963 24.5942 133.009 26.3824 130.81 27.8242C128.565 29.3045 126.057 30.4574 123.283 31.2826C120.384 32.1234 117.38 32.5388 114.363 32.5161H109.97L104.76 47.9235H90.3804L106.599 0H126.168C129.293 0 131.97 0.27643 134.186 0.83368C136.405 1.39093 138.125 2.30131 139.353 3.55619C140.581 4.81957 141.28 6.44882 141.458 8.45662C141.632 10.4602 141.23 12.9104 140.251 15.8072ZM124.876 16.3091C125.257 15.1733 125.401 14.2247 125.299 13.4675C125.236 12.7846 124.945 12.1432 124.473 11.647C123.972 11.1643 123.352 10.8237 122.677 10.66C121.868 10.4521 121.035 10.3521 120.199 10.3623H117.467L113.465 22.1879H116.692C117.849 22.1879 118.865 22.0475 119.75 21.7583C121.41 21.2392 122.831 20.1427 123.757 18.6658C124.215 17.9426 124.588 17.1556 124.876 16.3091ZM152.712 47.9235L154.474 42.7126H154.343C152.636 44.6055 150.743 46.0859 148.663 47.1579C146.573 48.2293 144.258 48.7793 141.911 48.7615C140.183 48.7615 138.764 48.4893 137.663 47.9405C136.634 47.4624 135.778 46.6744 135.215 45.686C134.668 44.6535 134.4 43.4945 134.44 42.3254C134.448 41.0493 134.707 39.6712 135.202 38.1994C135.626 36.953 136.214 35.7023 136.968 34.456C137.782 33.1406 138.804 31.9668 139.993 30.9805C141.41 29.8167 142.995 28.8758 144.694 28.19C146.575 27.3988 148.845 26.8374 151.505 26.5014L160.332 25.3953C160.523 24.8962 160.564 24.3521 160.451 23.8299C160.332 23.3618 160.074 22.9416 159.71 22.6261C159.277 22.2627 158.769 22.0012 158.223 21.8604C157.53 21.6706 156.815 21.5789 156.097 21.5881C154.966 21.5881 153.809 21.686 152.623 21.8731C151.437 22.0646 150.277 22.3113 149.142 22.6261C148.033 22.9285 146.938 23.2791 145.859 23.6768C144.804 24.0682 143.826 24.4638 142.911 24.8679L146.045 15.6073C146.986 15.25 148.079 14.9053 149.337 14.5693C150.595 14.2375 151.899 13.9483 153.259 13.7016C154.618 13.4549 155.97 13.2549 157.308 13.1017C158.538 12.9525 159.775 12.8744 161.014 12.8678C164.119 12.8678 166.61 13.208 168.49 13.8887C170.367 14.565 171.722 15.5775 172.552 16.926C173.382 18.2744 173.734 19.9589 173.607 21.9752C173.48 23.9915 172.959 26.3482 172.044 29.0408L165.657 47.9278L152.712 47.9235ZM152.996 32.9203C151.853 33.0989 150.857 33.4605 150.018 34.005C149.443 34.3766 148.964 34.8815 148.623 35.4774C148.282 36.0732 148.088 36.7427 148.057 37.4294C148.053 37.8123 148.129 38.1525 148.29 38.4673C148.451 38.7778 148.714 39.0288 149.082 39.2202C149.548 39.4283 150.056 39.5245 150.565 39.501C151.276 39.501 151.984 39.3648 152.691 39.0841C153.394 38.8076 154.055 38.4035 154.682 37.8803C156.017 36.7254 157.017 35.2311 157.579 33.5541L158.015 32.2525L152.996 32.9203ZM195.543 48.8934C194.192 50.8544 192.748 52.7431 191.198 54.5595C189.687 56.3402 187.997 57.9583 186.153 59.3876C184.332 60.7914 182.358 61.9101 180.223 62.7481C177.978 63.6029 175.593 64.027 173.192 63.9987C171.943 63.9824 170.697 63.8873 169.46 63.7137C168.731 63.6117 168.007 63.4726 167.291 63.2969C166.601 63.1309 165.925 62.9074 165.271 62.629L168.901 51.9008C169.197 52.19 169.539 52.4273 169.913 52.6027C170.324 52.8027 170.756 52.9856 171.214 53.1388C172.084 53.437 172.996 53.5949 173.916 53.6066C175.128 53.6198 176.326 53.3581 177.423 52.841C178.539 52.2891 179.504 51.4731 180.236 50.4631L182.239 47.7916L179.533 13.7016H195.204L193.747 30.2106C193.705 30.7211 193.663 31.2741 193.608 31.8484C193.506 32.9494 193.373 34.0473 193.209 35.1408C193.129 35.6427 193.04 36.0724 192.943 36.4297H193.074C193.451 35.647 193.938 34.7282 194.539 33.669C195.141 32.6141 195.802 31.4826 196.518 30.2787L206.221 13.7016H220L195.543 48.8934Z" fill="white"/>
</svg>
