<svg width="43" height="14" viewBox="0 0 43 14" fill="none" xmlns="http://www.w3.org/2000/svg">
<path d="M18.5555 13.7666H15.0628L17.2457 0.241672H20.7387L18.5555 13.7666ZM12.1246 0.241672L8.7949 9.54425L8.40089 7.54105L8.40125 7.54177L7.22604 1.45944C7.22604 1.45944 7.08394 0.241672 5.56926 0.241672H0.064592L0 0.470682C0 0.470682 1.68334 0.823784 3.65339 2.01659L6.68777 13.767H10.3268L15.8835 0.241672H12.1246ZM39.5959 13.7666H42.8029L40.0068 0.241311H37.1992C35.9027 0.241311 35.5869 1.24924 35.5869 1.24924L30.3779 13.7666H34.0188L34.7468 11.7577H39.1868L39.5959 13.7666ZM35.7527 8.9824L37.5878 3.92103L38.6202 8.9824H35.7527ZM30.651 3.49412L31.1494 0.589709C31.1494 0.589709 29.6114 0 28.0081 0C26.2749 0 22.159 0.763728 22.159 4.47745C22.159 7.97157 26.9897 8.01499 26.9897 9.85032C26.9897 11.6857 22.6567 11.3568 21.2267 10.1994L20.7074 13.2363C20.7074 13.2363 22.267 14 24.6497 14C27.0331 14 30.6288 12.7558 30.6288 9.36951C30.6288 5.85296 25.7546 5.52554 25.7546 3.99664C25.7549 2.46737 29.1564 2.66382 30.651 3.49412Z" fill="white"/>
<path d="M8.89467 7.62476L7.67004 1.37264C7.67004 1.37264 7.52196 0.12088 5.94358 0.12088H0.207445L0.140137 0.356283C0.140137 0.356283 2.89715 0.924522 5.54161 3.05356C8.07014 5.08851 8.89467 7.62476 8.89467 7.62476Z" fill="#E6A540"/>
</svg>
